<?xml version="1.0" encoding="iso-8859-1"?>
<!-- Generator: Adobe Illustrator 19.0.0, SVG Export Plug-In . SVG Version: 6.00 Build 0)  -->
<svg version="1.1" id="Capa_1" xmlns="http://www.w3.org/2000/svg" xmlns:xlink="http://www.w3.org/1999/xlink" x="0px" y="0px"
	 viewBox="0 0 512 512" style="enable-background:new 0 0 512 512;" xml:space="preserve">
<g>
	<g>
		<path d="M274.55,316.618c-1.727-2.714-6.194-7.045-12.028-6.25c-5.125,0.698-8.835,4.742-11.026,12.021
			c-0.12,0.398-0.207,0.807-0.259,1.22c-1.472,11.627-8.747,20.395-16.923,20.395c-10.061,0-16.871-12.198-17.181-23.822
			c-0.113-4.34-2.998-9.62-8.169-10.914c-6.729-1.683-12.304,4.097-14.387,6.661c-0.174,0.214-0.336,0.438-0.485,0.669
			c-20.32,31.571,2.36,73.638,40.222,73.638C272.145,390.236,294.864,348.212,274.55,316.618z M234.314,375.233
			c-22.817,0-38.707-22.858-30.771-44.201c9.211,37.189,52.349,37.23,61.544,0.009C273.032,352.43,257.09,375.233,234.314,375.233z"
			/>
	</g>
</g>
<g>
	<g>
		<path d="M471.507,86.617c-4.123-0.219-7.668,2.952-7.89,7.089c-0.833,15.585-6.436,30.281-16.202,42.501
			c-6.975,8.649-10.499,24.255-10.36,33.967c0.232,20.175-2.854,40.393-9.047,59.919c-8.675-12.853-18.327-25.629-28.809-38.128
			c-2.661-3.174-7.392-3.591-10.567-0.927c-3.174,2.661-3.589,7.392-0.928,10.567c12.616,15.044,23.979,30.486,33.815,45.95
			c-10.054,23.86-21.602,40.064-33.609,51.956c-54.024-88.022-147.621-162.433-238.275-210.508
			c14.793-14.55,32.887-26.605,52.978-35.719c37.843,21.009,106.638,63.93,165.385,126.192c2.845,3.014,7.591,3.151,10.604,0.308
			c3.013-2.843,3.15-7.589,0.308-10.603c-55.005-58.296-118.478-99.943-158.475-123.039c28.027-9.789,58.89-14.173,89.535-12.079
			c13.458,2.152,29.114-0.973,36.327-5.591c5.826-3.727,5.507-3.504,5.844-3.75c0.133-0.097,13.948-9.721,36.926-9.721
			c32.467,0,61.01,20.741,71.027,51.612c1.279,3.94,5.516,6.096,9.449,4.819c3.94-1.278,6.098-5.509,4.819-9.45
			C462.33,24.909,428.052,0,389.064,0c-26.72,0-43.276,10.864-45.534,12.438l-5.019,3.205c-12.243,6.231-26.337,3.478-27.574,3.45
			c-62.252-4.233-129.032,16.58-172.58,59.94c-10.335,8.531-23.531,22.478-33.587,36.301c-20.233,27.794-33.107,61.34-24.425,94.729
			c3.591,13.809,3.479,23.617-0.323,28.367c-4.44,5.548-15.31,5.183-24.043,4.888c-8.346-0.28-14.946-0.503-19.338,3.742
			c-3.105,3.002-4.074,7.792-2.511,11.062l13.098,27.386l-4.082,15.959c-0.743,2.905,0.315,5.975,2.692,7.803l6.061,4.662
			l-3.675,6.43c-1.998,3.497-0.84,7.972,2.576,10.106c1.45,0.906,14.006,9.214,8.352,21.651
			c-5.202,11.448-3.523,23.767,4.383,32.151c7.919,8.398,19.913,10.888,31.31,6.495c17.991-6.939,42.188-9.213,60.218-0.362
			c16.281,7.992,24.787,22.888,30.073,39.801c0.06,0.186,5.854,18.875-2.68,43.014c-6.62,18.775,3.674,35.034,22.032,37.212
			c35.818,4.152,75.149,0.377,108.18-15.141c0.216-0.102,0.427-0.213,0.632-0.334c8.516-5.04,20.799-18.679,12.825-37.825
			c-0.052-0.122-0.105-0.244-0.163-0.363c-25.455-52.994-16.124-99.324-16.03-99.773c0.135-0.628,0.188-1.271,0.159-1.912
			c-0.164-3.637,6.423-5.889,10.062-6.382c85.368-11.545,132.75-97.395,131.902-178.488c0.746-16.29,6.222-23.558,6.775-24.252
			c0.399-0.404,0.738-0.84,1.02-1.299c11.288-14.496,17.764-31.813,18.744-50.154C478.816,90.371,475.642,86.838,471.507,86.617z
			 M321.587,333.316c-28.754-49.596-73.349-95.818-132.636-137.463c-3.388-2.382-8.067-1.563-10.449,1.826
			c-2.381,3.389-1.563,8.068,1.827,10.449c56.136,39.431,98.571,82.91,126.285,129.338c-5.952,3.205-11.495,8.716-11.53,17.29
			c-1.365,7.255-8.708,54.099,17.262,108.311c4.491,11.051-3.991,17.303-6.411,18.813c-37.554,17.515-78.386,16.105-99.54,13.671
			c-9.198-1.553-12.85-6.567-9.632-17.799c15.408-44.278-4.594-85.845-35.091-100.814c-30.425-14.936-65.501-2.761-72.225-0.169
			c-11.761,4.532-22.481-5.589-16.639-18.442c7.183-15.805-0.459-28.808-8.335-36.165l3.694-6.465
			c1.859-3.254,1.031-7.381-1.938-9.667l-7.326-5.636c2.711-12.381,4.964-14.863,3.031-18.902l-11.143-23.298
			c12.095,0.091,30.562,2.576,40.941-10.389c7.072-8.836,8.096-22.415,3.13-41.516c-4.232-16.28-2.184-32.299,3.022-46.991
			c10.574,5.107,31.993,16.039,57.78,32.377c3.499,2.217,8.132,1.178,10.351-2.322c2.217-3.499,1.177-8.132-2.322-10.35
			c-21.212-13.439-43.169-25.496-59.855-33.54c9.992-19.771,24.456-36.054,34.105-45.652
			c77.218,40.157,159.142,102.116,212.806,172.169c1.043,1.362,2.072,2.727,3.094,4.093c0.196,0.261,0.396,0.522,0.591,0.783
			c8.016,10.771,15.361,21.671,22.021,32.691C360.252,322.047,341.343,330.058,321.587,333.316z"/>
	</g>
</g>
<g>
</g>
<g>
</g>
<g>
</g>
<g>
</g>
<g>
</g>
<g>
</g>
<g>
</g>
<g>
</g>
<g>
</g>
<g>
</g>
<g>
</g>
<g>
</g>
<g>
</g>
<g>
</g>
<g>
</g>
</svg>
